<svg version="1.1" xmlns="http://www.w3.org/2000/svg" xmlns:xlink="http://www.w3.org/1999/xlink" width="208.26089" height="79.84832" viewBox="0,0,208.26089,79.84832"><g transform="translate(-135.55269,-140.07584)"><g data-paper-data="{&quot;isPaintingLayer&quot;:true}" fill-rule="nonzero" stroke-linejoin="miter" stroke-miterlimit="10" stroke-dasharray="" stroke-dashoffset="0" style="mix-blend-mode: normal"><g><g fill="#c46859" stroke-linecap="butt"><path d="M213.41425,219.17416v-21.53911h52.09456v21.53911z" stroke="#ffffff" stroke-width="1.5"/><path d="M238.93557,141.33309c7.81492,0 20.40004,-2.56112 25.52152,3.82636c5.12187,6.38795 3.78166,23.22755 3.78166,32.97549c0,5.65153 -1.06486,24.94343 -2.95795,29.67945c-4.63722,11.60107 -14.24416,5.61968 -25.34341,5.61968c-10.38768,0 -20.61318,7.39319 -25.53611,-3.01163c-2.48462,-5.25138 -2.76526,-25.74845 -2.76526,-32.28751c0,-9.23121 -0.66536,-25.14843 3.98559,-31.43841c5.17129,-6.99368 15.08474,-5.36344 23.31396,-5.36344z" data-paper-data="{&quot;index&quot;:null}" stroke="#ffffff" stroke-width="1.5"/><path d="M214.64147,147.05777v-5.00911h50.4666v5.00911z" stroke="#ffffff" stroke-width="1.5"/><path d="M214.36106,217.64917v-13.95389h50.01937v13.95389z" stroke="none" stroke-width="0"/><path d="M215.7361,155.25775v-11.80715h48.23755v11.80715z" stroke="none" stroke-width="0"/><path d="M265.37224,149.61989c0,1.70355 -0.56655,3.08454 -1.26546,3.08454c-0.69889,0 -1.26547,-1.38099 -1.26547,-3.08454c0,-1.70355 0.56656,-3.08455 1.26547,-3.08455c0.69889,0 1.26546,1.381 1.26546,3.08455z" stroke="none" stroke-width="0"/><path d="M264.7395,148.15671c0,1.90011 -0.56655,3.44045 -1.26546,3.44045c-0.69889,0 -1.26546,-1.54034 -1.26546,-3.44045c0,-1.90011 0.56655,-3.44044 1.26546,-3.44044c0.69889,0 1.26546,1.54033 1.26546,3.44044z" stroke="none" stroke-width="0"/></g><path d="M212.64013,167.84319h55" fill="none" stroke="#ffffff" stroke-width="1.5" stroke-linecap="round"/><path d="M213.97347,154.17653h52.33333" fill="none" stroke="#ffffff" stroke-width="1.5" stroke-linecap="round"/><path d="M212.64013,180.84319h54.33334" fill="none" stroke="#ffffff" stroke-width="1.5" stroke-linecap="round"/><path d="M266.97347,193.97653h-54.33334" fill="none" stroke="#ffffff" stroke-width="1.5" stroke-linecap="round"/><path d="M213.2468,206.46855h51.86667" fill="none" stroke="#ffffff" stroke-width="1.5" stroke-linecap="round"/><path d="M253.8468,215.23431v-7.91667h10.9v7.91667z" fill="#c46859" stroke="none" stroke-width="NaN" stroke-linecap="butt"/></g><g><g fill="#c46859" stroke-linecap="butt"><path d="M288.08091,219.17416v-21.53911h52.09455v21.53911z" stroke="#ffffff" stroke-width="1.5"/><path d="M313.60223,141.33309c7.81492,0 20.40003,-2.56112 25.52152,3.82636c5.12186,6.38795 3.78166,23.22755 3.78166,32.97549c0,5.65153 -1.06486,24.94343 -2.95795,29.67945c-4.63722,11.60107 -14.24416,5.61968 -25.34341,5.61968c-10.38768,0 -20.61318,7.39319 -25.53611,-3.01163c-2.48462,-5.25138 -2.76526,-25.74845 -2.76526,-32.28751c0,-9.23121 -0.66536,-25.14843 3.98559,-31.43841c5.17129,-6.99368 15.08474,-5.36344 23.31396,-5.36344z" data-paper-data="{&quot;index&quot;:null}" stroke="#ffffff" stroke-width="1.5"/><path d="M289.30813,147.05777v-5.00911h50.4666v5.00911z" stroke="#ffffff" stroke-width="1.5"/><path d="M289.02772,217.64917v-13.95389h50.01936v13.95389z" stroke="none" stroke-width="0"/><path d="M290.40276,155.25775v-11.80715h48.23755v11.80715z" stroke="none" stroke-width="0"/><path d="M340.0389,149.61989c0,1.70355 -0.56655,3.08454 -1.26546,3.08454c-0.69889,0 -1.26546,-1.38099 -1.26546,-3.08454c0,-1.70355 0.56656,-3.08455 1.26546,-3.08455c0.69889,0 1.26546,1.381 1.26546,3.08455z" stroke="none" stroke-width="0"/><path d="M339.40616,148.15671c0,1.90011 -0.56655,3.44045 -1.26546,3.44045c-0.69889,0 -1.26546,-1.54034 -1.26546,-3.44045c0,-1.90011 0.56655,-3.44044 1.26546,-3.44044c0.69889,0 1.26546,1.54033 1.26546,3.44044z" stroke="none" stroke-width="0"/></g><path d="M287.3068,167.84319h55" fill="none" stroke="#ffffff" stroke-width="1.5" stroke-linecap="round"/><path d="M288.64013,154.17653h52.33333" fill="none" stroke="#ffffff" stroke-width="1.5" stroke-linecap="round"/><path d="M287.3068,180.84319h54.33333" fill="none" stroke="#ffffff" stroke-width="1.5" stroke-linecap="round"/><path d="M341.64013,193.97653h-54.33333" fill="none" stroke="#ffffff" stroke-width="1.5" stroke-linecap="round"/><path d="M339.78012,206.46855h-51.86666" fill="none" stroke="#ffffff" stroke-width="1.5" stroke-linecap="round"/><path d="M328.51346,215.23431v-7.91667h10.9v7.91667z" fill="#c46859" stroke="none" stroke-width="NaN" stroke-linecap="butt"/></g><g><g fill="#c46859" stroke-linecap="butt"><path d="M138.08091,219.17416v-21.53911h52.09456v21.53911z" stroke="#ffffff" stroke-width="1.5"/><path d="M163.60223,141.33309c7.81492,0 20.40004,-2.56112 25.52153,3.82636c5.12187,6.38795 3.78166,23.22755 3.78166,32.97549c0,5.65153 -1.06486,24.94343 -2.95795,29.67945c-4.63722,11.60107 -14.24416,5.61968 -25.34341,5.61968c-10.38768,0 -20.61318,7.39319 -25.53611,-3.01163c-2.48462,-5.25138 -2.76526,-25.74845 -2.76526,-32.28751c0,-9.23121 -0.66536,-25.14843 3.98559,-31.43841c5.17129,-6.99368 15.08474,-5.36344 23.31396,-5.36344z" data-paper-data="{&quot;index&quot;:null}" stroke="#ffffff" stroke-width="1.5"/><path d="M139.30813,147.05777v-5.00911h50.46661v5.00911z" stroke="#ffffff" stroke-width="1.5"/><path d="M139.02772,217.64917v-13.95389h50.01937v13.95389z" stroke="none" stroke-width="0"/><path d="M140.40276,155.25775v-11.80715h48.23755v11.80715z" stroke="none" stroke-width="0"/><path d="M190.0389,149.61989c0,1.70355 -0.56655,3.08454 -1.26546,3.08454c-0.69889,0 -1.26547,-1.38099 -1.26547,-3.08454c0,-1.70355 0.56656,-3.08455 1.26547,-3.08455c0.69889,0 1.26546,1.381 1.26546,3.08455z" stroke="none" stroke-width="0"/><path d="M189.40616,148.15671c0,1.90011 -0.56656,3.44045 -1.26546,3.44045c-0.69889,0 -1.26546,-1.54034 -1.26546,-3.44045c0,-1.90011 0.56656,-3.44044 1.26546,-3.44044c0.69889,0 1.26546,1.54033 1.26546,3.44044z" stroke="none" stroke-width="0"/></g><path d="M192.3068,167.84319h-55" fill="none" stroke="#ffffff" stroke-width="1.5" stroke-linecap="round"/><path d="M138.64013,154.17653h52.33333" fill="none" stroke="#ffffff" stroke-width="1.5" stroke-linecap="round"/><path d="M137.3068,180.84319h54.33334" fill="none" stroke="#ffffff" stroke-width="1.5" stroke-linecap="round"/><path d="M137.3068,193.97653h54.33334" fill="none" stroke="#ffffff" stroke-width="1.5" stroke-linecap="round"/><path d="M137.91346,206.46855h51.86667" fill="none" stroke="#ffffff" stroke-width="1.5" stroke-linecap="round"/><path d="M178.51346,215.23431v-7.91667h10.9v7.91667z" fill="#c46859" stroke="none" stroke-width="NaN" stroke-linecap="butt"/></g></g></g></svg>