<svg version="1.1" xmlns="http://www.w3.org/2000/svg" xmlns:xlink="http://www.w3.org/1999/xlink" width="684.68468" height="514.00526" viewBox="0,0,684.68468,514.00526"><g transform="translate(102.34234,75.25525)"><g data-paper-data="{&quot;isPaintingLayer&quot;:true}" fill-rule="nonzero" stroke-linejoin="miter" stroke-miterlimit="10" stroke-dasharray="" stroke-dashoffset="0" style="mix-blend-mode: normal"><path d="M-102.34234,435.25527v-510.51051h684.68468v510.51051z" fill="#5dccb7" stroke="none" stroke-width="0" stroke-linecap="butt"/><path d="M97.91895,214.00001c0,-16.06101 13.02004,-29.08105 29.08105,-29.08105c16.06101,0 29.08105,13.02004 29.08105,29.08105c0,16.06101 -13.02004,29.08105 -29.08105,29.08105c-16.06101,0 -29.08105,-13.02004 -29.08105,-29.08105z" fill="#63cb7a" stroke="#000000" stroke-width="1.5" stroke-linecap="butt"/><g stroke="#000000" stroke-width="1.5" stroke-linecap="butt"><path d="M74,438.00001v-194h345.25424v194z" fill="#c9a28a"/><path d="M225.25424,354.15256v-110.15254h42.74576v110.15254z" fill="#c9a28a"/><path d="M225.25424,354.15256v-110.15254h42.74576v110.15254z" fill-opacity="0.80739" fill="#ffffff"/></g><g><g fill="#c46859" stroke-linecap="butt"><path d="M267.22986,242.17416v-24.83809h60.07348v24.83809z" stroke="#ffffff" stroke-width="1.5"/><path d="M296.66009,152.41079c9.01187,0 23.52455,-2.95339 29.43045,4.41241c5.90635,7.36634 4.36087,26.78513 4.36087,38.02609c0,6.51713 -1.22796,28.76382 -3.411,34.22522c-5.34747,13.37792 -16.42583,6.4804 -29.22506,6.4804c-11.97868,0 -23.77034,8.52555 -29.44728,-3.4729c-2.86517,-6.05569 -3.18879,-29.69214 -3.18879,-37.23274c0,-10.64508 -0.76727,-29.00022 4.59603,-36.25359c5.96334,-8.06485 17.39515,-6.18492 26.88478,-6.18492z" data-paper-data="{&quot;index&quot;:null}" stroke="#ffffff" stroke-width="1.5"/><path d="M268.64505,159.01227v-5.77632h58.19618v5.77632z" stroke="#ffffff" stroke-width="1.5"/><path d="M268.32169,240.4156v-16.0911h57.68045v16.0911z" stroke="none" stroke-width="0"/><path d="M269.90733,168.46818v-13.61556h55.62572v13.61556z" stroke="none" stroke-width="0"/><path d="M327.14585,161.96681c0,1.96447 -0.65332,3.55697 -1.45928,3.55697c-0.80593,0 -1.45929,-1.59251 -1.45929,-3.55697c0,-1.96447 0.65334,-3.55699 1.45929,-3.55699c0.80593,0 1.45928,1.59252 1.45928,3.55699z" stroke="none" stroke-width="0"/><path d="M326.4162,160.27953c0,2.19114 -0.65332,3.9674 -1.45928,3.9674c-0.80593,0 -1.45928,-1.77626 -1.45928,-3.9674c0,-2.19114 0.65332,-3.96739 1.45928,-3.96739c0.80593,0 1.45928,1.77625 1.45928,3.96739z" stroke="none" stroke-width="0"/></g><path d="M266.33718,182.98123h63.42392" fill="none" stroke="#ffffff" stroke-width="1.5" stroke-linecap="round"/><path d="M267.87474,167.22136h60.34882" fill="none" stroke="#ffffff" stroke-width="1.5" stroke-linecap="round"/><path d="M266.33718,197.97234h62.65515" fill="none" stroke="#ffffff" stroke-width="1.5" stroke-linecap="round"/><path d="M328.99233,213.11721h-62.65515" fill="none" stroke="#ffffff" stroke-width="1.5" stroke-linecap="round"/><path d="M267.03677,227.52254h59.81068" fill="none" stroke="#ffffff" stroke-width="1.5" stroke-linecap="round"/><path d="M313.85515,237.63088v-9.1292h12.56947v9.1292z" fill="#c46859" stroke="none" stroke-width="NaN" stroke-linecap="butt"/></g><g><g fill="#c46859" stroke-linecap="butt"><path d="M353.33263,242.17416v-24.83809h60.07347v24.83809z" stroke="#ffffff" stroke-width="1.5"/><path d="M382.76285,152.41079c9.01187,0 23.52454,-2.95339 29.43045,4.41241c5.90634,7.36634 4.36087,26.78513 4.36087,38.02609c0,6.51713 -1.22796,28.76382 -3.411,34.22522c-5.34747,13.37792 -16.42583,6.4804 -29.22506,6.4804c-11.97868,0 -23.77034,8.52555 -29.44728,-3.4729c-2.86517,-6.05569 -3.18879,-29.69214 -3.18879,-37.23274c0,-10.64508 -0.76727,-29.00022 4.59603,-36.25359c5.96334,-8.06485 17.39515,-6.18492 26.88478,-6.18492z" data-paper-data="{&quot;index&quot;:null}" stroke="#ffffff" stroke-width="1.5"/><path d="M354.74782,159.01227v-5.77632h58.19618v5.77632z" stroke="#ffffff" stroke-width="1.5"/><path d="M354.42446,240.4156v-16.0911h57.68043v16.0911z" stroke="none" stroke-width="0"/><path d="M356.0101,168.46818v-13.61556h55.62572v13.61556z" stroke="none" stroke-width="0"/><path d="M413.24862,161.96681c0,1.96447 -0.65332,3.55697 -1.45928,3.55697c-0.80593,0 -1.45928,-1.59251 -1.45928,-3.55697c0,-1.96447 0.65334,-3.55699 1.45928,-3.55699c0.80593,0 1.45928,1.59252 1.45928,3.55699z" stroke="none" stroke-width="0"/><path d="M412.51897,160.27953c0,2.19114 -0.65332,3.9674 -1.45928,3.9674c-0.80593,0 -1.45928,-1.77626 -1.45928,-3.9674c0,-2.19114 0.65332,-3.96739 1.45928,-3.96739c0.80593,0 1.45928,1.77625 1.45928,3.96739z" stroke="none" stroke-width="0"/></g><path d="M415.86388,182.98123h-63.42392" fill="none" stroke="#ffffff" stroke-width="1.5" stroke-linecap="round"/><path d="M353.9775,167.22136h60.34882" fill="none" stroke="#ffffff" stroke-width="1.5" stroke-linecap="round"/><path d="M352.43996,197.97234h62.65514" fill="none" stroke="#ffffff" stroke-width="1.5" stroke-linecap="round"/><path d="M415.0951,213.11721h-62.65514" fill="none" stroke="#ffffff" stroke-width="1.5" stroke-linecap="round"/><path d="M412.95021,227.52254h-59.81067" fill="none" stroke="#ffffff" stroke-width="1.5" stroke-linecap="round"/><path d="M399.95792,237.63088v-9.1292h12.56947v9.1292z" fill="#c46859" stroke="none" stroke-width="NaN" stroke-linecap="butt"/></g><g><g fill="#c46859" stroke-linecap="butt"><path d="M180.3583,242.17416v-24.83809h60.07348v24.83809z" stroke="#ffffff" stroke-width="1.5"/><path d="M209.78853,152.41079c9.01187,0 23.52455,-2.95339 29.43046,4.41241c5.90635,7.36634 4.36087,26.78513 4.36087,38.02609c0,6.51713 -1.22796,28.76382 -3.411,34.22522c-5.34747,13.37792 -16.42583,6.4804 -29.22506,6.4804c-11.97868,0 -23.77034,8.52555 -29.44728,-3.4729c-2.86517,-6.05569 -3.18879,-29.69214 -3.18879,-37.23274c0,-10.64508 -0.76727,-29.00022 4.59603,-36.25359c5.96334,-8.06485 17.39515,-6.18492 26.88478,-6.18492z" data-paper-data="{&quot;index&quot;:null}" stroke="#ffffff" stroke-width="1.5"/><path d="M181.77349,159.01227v-5.77632h58.19619v5.77632z" stroke="#ffffff" stroke-width="1.5"/><path d="M181.45013,240.4156v-16.0911h57.68045v16.0911z" stroke="none" stroke-width="0"/><path d="M183.03577,168.46818v-13.61556h55.62572v13.61556z" stroke="none" stroke-width="0"/><path d="M240.27429,161.96681c0,1.96447 -0.65332,3.55697 -1.45928,3.55697c-0.80593,0 -1.45929,-1.59251 -1.45929,-3.55697c0,-1.96447 0.65334,-3.55699 1.45929,-3.55699c0.80593,0 1.45928,1.59252 1.45928,3.55699z" stroke="none" stroke-width="0"/><path d="M239.54464,160.27953c0,2.19114 -0.65334,3.9674 -1.45928,3.9674c-0.80593,0 -1.45928,-1.77626 -1.45928,-3.9674c0,-2.19114 0.65334,-3.96739 1.45928,-3.96739c0.80593,0 1.45928,1.77625 1.45928,3.96739z" stroke="none" stroke-width="0"/></g><path d="M242.88955,182.98123h-63.42392" fill="none" stroke="#ffffff" stroke-width="1.5" stroke-linecap="round"/><path d="M181.00318,167.22136h60.34882" fill="none" stroke="#ffffff" stroke-width="1.5" stroke-linecap="round"/><path d="M179.46563,197.97234h62.65515" fill="none" stroke="#ffffff" stroke-width="1.5" stroke-linecap="round"/><path d="M242.12078,213.11721h-62.65515" fill="none" stroke="#ffffff" stroke-width="1.5" stroke-linecap="round"/><path d="M180.16521,227.52254h59.81068" fill="none" stroke="#ffffff" stroke-width="1.5" stroke-linecap="round"/><path d="M226.98359,237.63088v-9.1292h12.56947v9.1292z" fill="#c46859" stroke="none" stroke-width="NaN" stroke-linecap="butt"/></g><text transform="translate(44.45,94.72678) scale(0.91617,0.91617)" font-size="40" xml:space="preserve" fill="#000000" fill-rule="nonzero" stroke="none" stroke-width="1" stroke-linecap="butt" stroke-linejoin="miter" stroke-miterlimit="10" stroke-dasharray="" stroke-dashoffset="0" font-family="Sans Serif" font-weight="normal" text-anchor="start" style="mix-blend-mode: normal"><tspan x="0" dy="0">Cups, Ballls, and a Box</tspan></text></g></g></svg>